<?xml version="1.0" standalone="no"?><svg xmlns:xlink="http://www.w3.org/1999/xlink" xmlns="http://www.w3.org/2000/svg" viewBox="0 0 1000 615.3846153846155" preserveAspectRatio="xMaxYMax slice"><g transform="scale(1.1902990626394883)"><rect x="0" y="0" width="840.125" height="517" fill="#042940"/><rect x="452.375" y="64.625" width="64.625" height="64.625" fill="#042940"/><rect x="64.625" y="129.25" width="64.625" height="64.625" fill="#042940"/><g transform="translate(64.63,161.56) scale(1.6155000000000002) rotate(0)"><rect width="2" height="20" fill="#DBF227"/><rect x="4" width="2" height="20" fill="#DBF227"/><rect x="8" width="2" height="20" fill="#DBF227"/><rect x="12" width="2" height="20" fill="#DBF227"/><rect x="16" width="2" height="20" fill="#DBF227"/></g><rect x="129.25" y="129.25" width="64.625" height="64.625" fill="#042940"/><g transform="translate(129.25,161.56) scale(1.6155000000000002) rotate(0)"><path d="M5 0H10L5 5L0 10V5L5 0Z" fill="#D6D58E"/><path d="M20 15V20H15L20 15Z" fill="#D6D58E"/><path d="M20 5V10L15 15L10 20H5L20 5Z" fill="#D6D58E"/><path d="M15 0H20L5 15.0002L0 20.0002V15.0002L15 0Z" fill="#D6D58E"/></g><rect x="258.5" y="129.25" width="64.625" height="64.625" fill="#042940"/><g transform="translate(290.81,161.56) scale(1.6155000000000002) rotate(0)"><rect width="20" height="2" fill="#D6D58E"/><rect y="4" width="20" height="2" fill="#D6D58E"/><rect y="8" width="20" height="2" fill="#D6D58E"/><rect y="12" width="20" height="2" fill="#D6D58E"/><rect y="16" width="20" height="2" fill="#D6D58E"/></g><rect x="387.75" y="129.25" width="64.625" height="64.625" fill="#042940"/><g transform="translate(387.75,161.56) scale(1.6155000000000002) rotate(0)"><rect width="2" height="20" fill="#9FC131"/><rect x="4" width="2" height="20" fill="#9FC131"/><rect x="8" width="2" height="20" fill="#9FC131"/><rect x="12" width="2" height="20" fill="#9FC131"/><rect x="16" width="2" height="20" fill="#9FC131"/></g><rect x="452.375" y="129.25" width="64.625" height="64.625" fill="#042940"/><g transform="translate(484.69,129.25) scale(1.6155000000000002) rotate(0)"><path d="M5 0H10L5 5L0 10V5L5 0Z" fill="#D6D58E"/><path d="M20 15V20H15L20 15Z" fill="#D6D58E"/><path d="M20 5V10L15 15L10 20H5L20 5Z" fill="#D6D58E"/><path d="M15 0H20L5 15.0002L0 20.0002V15.0002L15 0Z" fill="#D6D58E"/></g><rect x="581.625" y="129.25" width="64.625" height="64.625" fill="#042940"/><g transform="translate(613.94,129.25) scale(1.6155000000000002) rotate(0)"><path d="M10 0H20L0 20V10L10 0Z" fill="#9FC131"/><path d="M20 10V20H10L20 10Z" fill="#9FC131"/></g><rect x="775.5" y="129.25" width="64.625" height="64.625" fill="#042940"/><rect x="0" y="193.875" width="64.625" height="64.625" fill="#042940"/><g transform="translate(0,193.88) scale(1.6155000000000002) rotate(0)"><rect width="2" height="20" fill="#D6D58E"/><rect x="4" width="2" height="20" fill="#D6D58E"/><rect x="8" width="2" height="20" fill="#D6D58E"/><rect x="12" width="2" height="20" fill="#D6D58E"/><rect x="16" width="2" height="20" fill="#D6D58E"/></g><rect x="64.625" y="193.875" width="64.625" height="64.625" fill="#042940"/><rect x="452.375" y="193.875" width="64.625" height="64.625" fill="#042940"/><g transform="translate(452.38,193.88) scale(1.6155000000000002) rotate(0)"><path d="M10 0H20L0 20V10L10 0Z" fill="#D6D58E"/><path d="M20 10V20H10L20 10Z" fill="#D6D58E"/></g><g transform="translate(484.69,193.88) scale(1.6155000000000002) rotate(0)"><path d="M5 0H10L5 5L0 10V5L5 0Z" fill="#005C53"/><path d="M20 15V20H15L20 15Z" fill="#005C53"/><path d="M20 5V10L15 15L10 20H5L20 5Z" fill="#005C53"/><path d="M15 0H20L5 15.0002L0 20.0002V15.0002L15 0Z" fill="#005C53"/></g><g transform="translate(452.38,226.19) scale(1.6155000000000002) rotate(0)"><path d="M10 0H20L0 20V10L10 0Z" fill="#D6D58E"/><path d="M20 10V20H10L20 10Z" fill="#D6D58E"/></g><rect x="517" y="193.875" width="64.625" height="64.625" fill="#042940"/><g transform="translate(549.31,193.88) scale(1.6155000000000002) rotate(0)"><rect width="20" height="2" fill="#005C53"/><rect y="4" width="20" height="2" fill="#005C53"/><rect y="8" width="20" height="2" fill="#005C53"/><rect y="12" width="20" height="2" fill="#005C53"/><rect y="16" width="20" height="2" fill="#005C53"/></g><g transform="translate(549.31,226.19) scale(1.6155000000000002) rotate(0)"><path d="M5 0H10L5 5L0 10V5L5 0Z" fill="#D6D58E"/><path d="M20 15V20H15L20 15Z" fill="#D6D58E"/><path d="M20 5V10L15 15L10 20H5L20 5Z" fill="#D6D58E"/><path d="M15 0H20L5 15.0002L0 20.0002V15.0002L15 0Z" fill="#D6D58E"/></g><rect x="646.25" y="193.875" width="64.625" height="64.625" fill="#042940"/><g transform="translate(646.25,193.88) scale(1.6155000000000002) rotate(0)"><rect width="2" height="20" fill="#DBF227"/><rect x="4" width="2" height="20" fill="#DBF227"/><rect x="8" width="2" height="20" fill="#DBF227"/><rect x="12" width="2" height="20" fill="#DBF227"/><rect x="16" width="2" height="20" fill="#DBF227"/></g><g transform="translate(678.56,193.88) scale(1.6155000000000002) rotate(0)"><rect width="20" height="2" fill="#D6D58E"/><rect y="4" width="20" height="2" fill="#D6D58E"/><rect y="8" width="20" height="2" fill="#D6D58E"/><rect y="12" width="20" height="2" fill="#D6D58E"/><rect y="16" width="20" height="2" fill="#D6D58E"/></g><rect x="775.5" y="193.875" width="64.625" height="64.625" fill="#042940"/><g transform="translate(775.5,193.88) scale(1.6155000000000002) rotate(0)"><rect width="20" height="2" fill="#005C53"/><rect y="4" width="20" height="2" fill="#005C53"/><rect y="8" width="20" height="2" fill="#005C53"/><rect y="12" width="20" height="2" fill="#005C53"/><rect y="16" width="20" height="2" fill="#005C53"/></g><g transform="translate(807.81,226.19) scale(1.6155000000000002) rotate(0)"><path d="M10 0H20L0 20V10L10 0Z" fill="#D6D58E"/><path d="M20 10V20H10L20 10Z" fill="#D6D58E"/></g><rect x="0" y="258.5" width="64.625" height="64.625" fill="#042940"/><g transform="translate(32.31,258.5) scale(1.6155000000000002) rotate(0)"><rect width="2" height="20" fill="#9FC131"/><rect x="4" width="2" height="20" fill="#9FC131"/><rect x="8" width="2" height="20" fill="#9FC131"/><rect x="12" width="2" height="20" fill="#9FC131"/><rect x="16" width="2" height="20" fill="#9FC131"/></g><rect x="193.875" y="258.5" width="64.625" height="64.625" fill="#042940"/><g transform="translate(226.19,258.5) scale(1.6155000000000002) rotate(0)"><path d="M5 0H10L5 5L0 10V5L5 0Z" fill="#005C53"/><path d="M20 15V20H15L20 15Z" fill="#005C53"/><path d="M20 5V10L15 15L10 20H5L20 5Z" fill="#005C53"/><path d="M15 0H20L5 15.0002L0 20.0002V15.0002L15 0Z" fill="#005C53"/></g><g transform="translate(193.88,290.81) scale(1.6155000000000002) rotate(0)"><path d="M10 0H20L0 20V10L10 0Z" fill="#005C53"/><path d="M20 10V20H10L20 10Z" fill="#005C53"/></g><rect x="323.125" y="258.5" width="64.625" height="64.625" fill="#042940"/><g transform="translate(323.13,258.5) scale(1.6155000000000002) rotate(0)"><path d="M10 0H20L0 20V10L10 0Z" fill="#005C53"/><path d="M20 10V20H10L20 10Z" fill="#005C53"/></g><g transform="translate(355.44,258.5) scale(1.6155000000000002) rotate(0)"><rect width="20" height="2" fill="#DBF227"/><rect y="4" width="20" height="2" fill="#DBF227"/><rect y="8" width="20" height="2" fill="#DBF227"/><rect y="12" width="20" height="2" fill="#DBF227"/><rect y="16" width="20" height="2" fill="#DBF227"/></g><g transform="translate(323.13,290.81) scale(1.6155000000000002) rotate(0)"><path d="M10 0H20L0 20V10L10 0Z" fill="#DBF227"/><path d="M20 10V20H10L20 10Z" fill="#DBF227"/></g><g transform="translate(355.44,290.81) scale(1.6155000000000002) rotate(0)"><path d="M10 0H20L0 20V10L10 0Z" fill="#9FC131"/><path d="M20 10V20H10L20 10Z" fill="#9FC131"/></g><rect x="452.375" y="258.5" width="64.625" height="64.625" fill="#042940"/><g transform="translate(452.38,258.5) scale(1.6155000000000002) rotate(0)"><path d="M10 0H20L0 20V10L10 0Z" fill="#DBF227"/><path d="M20 10V20H10L20 10Z" fill="#DBF227"/></g><g transform="translate(484.69,258.5) scale(1.6155000000000002) rotate(0)"><path d="M5 0H10L5 5L0 10V5L5 0Z" fill="#D6D58E"/><path d="M20 15V20H15L20 15Z" fill="#D6D58E"/><path d="M20 5V10L15 15L10 20H5L20 5Z" fill="#D6D58E"/><path d="M15 0H20L5 15.0002L0 20.0002V15.0002L15 0Z" fill="#D6D58E"/></g><rect x="517" y="258.5" width="64.625" height="64.625" fill="#042940"/><g transform="translate(517,258.5) scale(1.6155000000000002) rotate(0)"><rect width="2" height="20" fill="#9FC131"/><rect x="4" width="2" height="20" fill="#9FC131"/><rect x="8" width="2" height="20" fill="#9FC131"/><rect x="12" width="2" height="20" fill="#9FC131"/><rect x="16" width="2" height="20" fill="#9FC131"/></g><g transform="translate(549.31,258.5) scale(1.6155000000000002) rotate(0)"><rect width="20" height="2" fill="#9FC131"/><rect y="4" width="20" height="2" fill="#9FC131"/><rect y="8" width="20" height="2" fill="#9FC131"/><rect y="12" width="20" height="2" fill="#9FC131"/><rect y="16" width="20" height="2" fill="#9FC131"/></g><g transform="translate(549.31,290.81) scale(1.6155000000000002) rotate(0)"><path d="M10 0H20L0 20V10L10 0Z" fill="#9FC131"/><path d="M20 10V20H10L20 10Z" fill="#9FC131"/></g><rect x="581.625" y="258.5" width="64.625" height="64.625" fill="#042940"/><g transform="translate(581.63,258.5) scale(1.6155000000000002) rotate(0)"><rect width="20" height="2" fill="#D6D58E"/><rect y="4" width="20" height="2" fill="#D6D58E"/><rect y="8" width="20" height="2" fill="#D6D58E"/><rect y="12" width="20" height="2" fill="#D6D58E"/><rect y="16" width="20" height="2" fill="#D6D58E"/></g><g transform="translate(613.94,258.5) scale(1.6155000000000002) rotate(0)"><path d="M10 0H20L0 20V10L10 0Z" fill="#005C53"/><path d="M20 10V20H10L20 10Z" fill="#005C53"/></g><g transform="translate(581.63,290.81) scale(1.6155000000000002) rotate(0)"><path d="M10 0H20L0 20V10L10 0Z" fill="#DBF227"/><path d="M20 10V20H10L20 10Z" fill="#DBF227"/></g><rect x="775.5" y="258.5" width="64.625" height="64.625" fill="#042940"/><g transform="translate(775.5,258.5) scale(1.6155000000000002) rotate(0)"><path d="M10 0H20L0 20V10L10 0Z" fill="#9FC131"/><path d="M20 10V20H10L20 10Z" fill="#9FC131"/></g><rect x="0" y="323.125" width="64.625" height="64.625" fill="#042940"/><g transform="translate(0,323.13) scale(1.6155000000000002) rotate(0)"><rect width="20" height="2" fill="#9FC131"/><rect y="4" width="20" height="2" fill="#9FC131"/><rect y="8" width="20" height="2" fill="#9FC131"/><rect y="12" width="20" height="2" fill="#9FC131"/><rect y="16" width="20" height="2" fill="#9FC131"/></g><g transform="translate(0,355.44) scale(1.6155000000000002) rotate(0)"><rect width="20" height="2" fill="#9FC131"/><rect y="4" width="20" height="2" fill="#9FC131"/><rect y="8" width="20" height="2" fill="#9FC131"/><rect y="12" width="20" height="2" fill="#9FC131"/><rect y="16" width="20" height="2" fill="#9FC131"/></g><g transform="translate(32.31,355.44) scale(1.6155000000000002) rotate(0)"><rect width="2" height="20" fill="#005C53"/><rect x="4" width="2" height="20" fill="#005C53"/><rect x="8" width="2" height="20" fill="#005C53"/><rect x="12" width="2" height="20" fill="#005C53"/><rect x="16" width="2" height="20" fill="#005C53"/></g><rect x="64.625" y="323.125" width="64.625" height="64.625" fill="#042940"/><g transform="translate(96.94,323.13) scale(1.6155000000000002) rotate(0)"><path d="M10 0H20L0 20V10L10 0Z" fill="#005C53"/><path d="M20 10V20H10L20 10Z" fill="#005C53"/></g><g transform="translate(96.94,355.44) scale(1.6155000000000002) rotate(0)"><rect width="2" height="20" fill="#9FC131"/><rect x="4" width="2" height="20" fill="#9FC131"/><rect x="8" width="2" height="20" fill="#9FC131"/><rect x="12" width="2" height="20" fill="#9FC131"/><rect x="16" width="2" height="20" fill="#9FC131"/></g><rect x="129.25" y="323.125" width="64.625" height="64.625" fill="#042940"/><g transform="translate(129.25,323.13) scale(1.6155000000000002) rotate(0)"><rect width="2" height="20" fill="#D6D58E"/><rect x="4" width="2" height="20" fill="#D6D58E"/><rect x="8" width="2" height="20" fill="#D6D58E"/><rect x="12" width="2" height="20" fill="#D6D58E"/><rect x="16" width="2" height="20" fill="#D6D58E"/></g><g transform="translate(161.56,323.13) scale(1.6155000000000002) rotate(0)"><path d="M10 0H20L0 20V10L10 0Z" fill="#9FC131"/><path d="M20 10V20H10L20 10Z" fill="#9FC131"/></g><g transform="translate(129.25,355.44) scale(1.6155000000000002) rotate(0)"><rect width="20" height="2" fill="#D6D58E"/><rect y="4" width="20" height="2" fill="#D6D58E"/><rect y="8" width="20" height="2" fill="#D6D58E"/><rect y="12" width="20" height="2" fill="#D6D58E"/><rect y="16" width="20" height="2" fill="#D6D58E"/></g><g transform="translate(161.56,355.44) scale(1.6155000000000002) rotate(0)"><rect width="20" height="2" fill="#005C53"/><rect y="4" width="20" height="2" fill="#005C53"/><rect y="8" width="20" height="2" fill="#005C53"/><rect y="12" width="20" height="2" fill="#005C53"/><rect y="16" width="20" height="2" fill="#005C53"/></g><rect x="193.875" y="323.125" width="64.625" height="64.625" fill="#042940"/><g transform="translate(193.88,323.13) scale(1.6155000000000002) rotate(0)"><path d="M5 0H10L5 5L0 10V5L5 0Z" fill="#005C53"/><path d="M20 15V20H15L20 15Z" fill="#005C53"/><path d="M20 5V10L15 15L10 20H5L20 5Z" fill="#005C53"/><path d="M15 0H20L5 15.0002L0 20.0002V15.0002L15 0Z" fill="#005C53"/></g><g transform="translate(226.19,323.13) scale(1.6155000000000002) rotate(0)"><path d="M5 0H10L5 5L0 10V5L5 0Z" fill="#D6D58E"/><path d="M20 15V20H15L20 15Z" fill="#D6D58E"/><path d="M20 5V10L15 15L10 20H5L20 5Z" fill="#D6D58E"/><path d="M15 0H20L5 15.0002L0 20.0002V15.0002L15 0Z" fill="#D6D58E"/></g><rect x="258.5" y="323.125" width="64.625" height="64.625" fill="#042940"/><g transform="translate(258.5,323.13) scale(1.6155000000000002) rotate(0)"><rect width="2" height="20" fill="#DBF227"/><rect x="4" width="2" height="20" fill="#DBF227"/><rect x="8" width="2" height="20" fill="#DBF227"/><rect x="12" width="2" height="20" fill="#DBF227"/><rect x="16" width="2" height="20" fill="#DBF227"/></g><g transform="translate(290.81,355.44) scale(1.6155000000000002) rotate(0)"><rect width="2" height="20" fill="#005C53"/><rect x="4" width="2" height="20" fill="#005C53"/><rect x="8" width="2" height="20" fill="#005C53"/><rect x="12" width="2" height="20" fill="#005C53"/><rect x="16" width="2" height="20" fill="#005C53"/></g><rect x="323.125" y="323.125" width="64.625" height="64.625" fill="#042940"/><g transform="translate(323.13,323.13) scale(1.6155000000000002) rotate(0)"><rect width="20" height="2" fill="#D6D58E"/><rect y="4" width="20" height="2" fill="#D6D58E"/><rect y="8" width="20" height="2" fill="#D6D58E"/><rect y="12" width="20" height="2" fill="#D6D58E"/><rect y="16" width="20" height="2" fill="#D6D58E"/></g><g transform="translate(323.13,355.44) scale(1.6155000000000002) rotate(0)"><path d="M5 0H10L5 5L0 10V5L5 0Z" fill="#DBF227"/><path d="M20 15V20H15L20 15Z" fill="#DBF227"/><path d="M20 5V10L15 15L10 20H5L20 5Z" fill="#DBF227"/><path d="M15 0H20L5 15.0002L0 20.0002V15.0002L15 0Z" fill="#DBF227"/></g><rect x="387.75" y="323.125" width="64.625" height="64.625" fill="#042940"/><g transform="translate(420.06,323.13) scale(1.6155000000000002) rotate(0)"><rect width="20" height="2" fill="#DBF227"/><rect y="4" width="20" height="2" fill="#DBF227"/><rect y="8" width="20" height="2" fill="#DBF227"/><rect y="12" width="20" height="2" fill="#DBF227"/><rect y="16" width="20" height="2" fill="#DBF227"/></g><g transform="translate(387.75,355.44) scale(1.6155000000000002) rotate(0)"><rect width="2" height="20" fill="#DBF227"/><rect x="4" width="2" height="20" fill="#DBF227"/><rect x="8" width="2" height="20" fill="#DBF227"/><rect x="12" width="2" height="20" fill="#DBF227"/><rect x="16" width="2" height="20" fill="#DBF227"/></g><rect x="452.375" y="323.125" width="64.625" height="64.625" fill="#042940"/><g transform="translate(452.38,323.13) scale(1.6155000000000002) rotate(0)"><path d="M10 0H20L0 20V10L10 0Z" fill="#005C53"/><path d="M20 10V20H10L20 10Z" fill="#005C53"/></g><g transform="translate(484.69,323.13) scale(1.6155000000000002) rotate(0)"><path d="M10 0H20L0 20V10L10 0Z" fill="#D6D58E"/><path d="M20 10V20H10L20 10Z" fill="#D6D58E"/></g><g transform="translate(484.69,355.44) scale(1.6155000000000002) rotate(0)"><path d="M10 0H20L0 20V10L10 0Z" fill="#005C53"/><path d="M20 10V20H10L20 10Z" fill="#005C53"/></g><rect x="517" y="323.125" width="64.625" height="64.625" fill="#042940"/><g transform="translate(517,323.13) scale(1.6155000000000002) rotate(0)"><path d="M5 0H10L5 5L0 10V5L5 0Z" fill="#9FC131"/><path d="M20 15V20H15L20 15Z" fill="#9FC131"/><path d="M20 5V10L15 15L10 20H5L20 5Z" fill="#9FC131"/><path d="M15 0H20L5 15.0002L0 20.0002V15.0002L15 0Z" fill="#9FC131"/></g><g transform="translate(549.31,323.13) scale(1.6155000000000002) rotate(0)"><path d="M10 0H20L0 20V10L10 0Z" fill="#005C53"/><path d="M20 10V20H10L20 10Z" fill="#005C53"/></g><g transform="translate(549.31,355.44) scale(1.6155000000000002) rotate(0)"><rect width="20" height="2" fill="#9FC131"/><rect y="4" width="20" height="2" fill="#9FC131"/><rect y="8" width="20" height="2" fill="#9FC131"/><rect y="12" width="20" height="2" fill="#9FC131"/><rect y="16" width="20" height="2" fill="#9FC131"/></g><rect x="581.625" y="323.125" width="64.625" height="64.625" fill="#042940"/><g transform="translate(581.63,323.13) scale(1.6155000000000002) rotate(0)"><rect width="2" height="20" fill="#005C53"/><rect x="4" width="2" height="20" fill="#005C53"/><rect x="8" width="2" height="20" fill="#005C53"/><rect x="12" width="2" height="20" fill="#005C53"/><rect x="16" width="2" height="20" fill="#005C53"/></g><g transform="translate(613.94,323.13) scale(1.6155000000000002) rotate(0)"><rect width="2" height="20" fill="#D6D58E"/><rect x="4" width="2" height="20" fill="#D6D58E"/><rect x="8" width="2" height="20" fill="#D6D58E"/><rect x="12" width="2" height="20" fill="#D6D58E"/><rect x="16" width="2" height="20" fill="#D6D58E"/></g><g transform="translate(581.63,355.44) scale(1.6155000000000002) rotate(0)"><path d="M10 0H20L0 20V10L10 0Z" fill="#005C53"/><path d="M20 10V20H10L20 10Z" fill="#005C53"/></g><rect x="646.25" y="323.125" width="64.625" height="64.625" fill="#042940"/><g transform="translate(646.25,323.13) scale(1.6155000000000002) rotate(0)"><path d="M5 0H10L5 5L0 10V5L5 0Z" fill="#005C53"/><path d="M20 15V20H15L20 15Z" fill="#005C53"/><path d="M20 5V10L15 15L10 20H5L20 5Z" fill="#005C53"/><path d="M15 0H20L5 15.0002L0 20.0002V15.0002L15 0Z" fill="#005C53"/></g><g transform="translate(678.56,323.13) scale(1.6155000000000002) rotate(0)"><rect width="2" height="20" fill="#005C53"/><rect x="4" width="2" height="20" fill="#005C53"/><rect x="8" width="2" height="20" fill="#005C53"/><rect x="12" width="2" height="20" fill="#005C53"/><rect x="16" width="2" height="20" fill="#005C53"/></g><g transform="translate(678.56,355.44) scale(1.6155000000000002) rotate(0)"><path d="M10 0H20L0 20V10L10 0Z" fill="#DBF227"/><path d="M20 10V20H10L20 10Z" fill="#DBF227"/></g><rect x="775.5" y="323.125" width="64.625" height="64.625" fill="#042940"/><g transform="translate(775.5,323.13) scale(1.6155000000000002) rotate(0)"><rect width="2" height="20" fill="#D6D58E"/><rect x="4" width="2" height="20" fill="#D6D58E"/><rect x="8" width="2" height="20" fill="#D6D58E"/><rect x="12" width="2" height="20" fill="#D6D58E"/><rect x="16" width="2" height="20" fill="#D6D58E"/></g><g transform="translate(775.5,355.44) scale(1.6155000000000002) rotate(0)"><path d="M10 0H20L0 20V10L10 0Z" fill="#9FC131"/><path d="M20 10V20H10L20 10Z" fill="#9FC131"/></g><g transform="translate(807.81,355.44) scale(1.6155000000000002) rotate(0)"><path d="M5 0H10L5 5L0 10V5L5 0Z" fill="#9FC131"/><path d="M20 15V20H15L20 15Z" fill="#9FC131"/><path d="M20 5V10L15 15L10 20H5L20 5Z" fill="#9FC131"/><path d="M15 0H20L5 15.0002L0 20.0002V15.0002L15 0Z" fill="#9FC131"/></g><rect x="0" y="387.75" width="64.625" height="64.625" fill="#042940"/><g transform="translate(0,387.75) scale(1.6155000000000002) rotate(0)"><rect width="20" height="2" fill="#9FC131"/><rect y="4" width="20" height="2" fill="#9FC131"/><rect y="8" width="20" height="2" fill="#9FC131"/><rect y="12" width="20" height="2" fill="#9FC131"/><rect y="16" width="20" height="2" fill="#9FC131"/></g><g transform="translate(32.31,387.75) scale(1.6155000000000002) rotate(0)"><rect width="2" height="20" fill="#9FC131"/><rect x="4" width="2" height="20" fill="#9FC131"/><rect x="8" width="2" height="20" fill="#9FC131"/><rect x="12" width="2" height="20" fill="#9FC131"/><rect x="16" width="2" height="20" fill="#9FC131"/></g><g transform="translate(0,420.06) scale(1.6155000000000002) rotate(0)"><path d="M10 0H20L0 20V10L10 0Z" fill="#DBF227"/><path d="M20 10V20H10L20 10Z" fill="#DBF227"/></g><g transform="translate(32.31,420.06) scale(1.6155000000000002) rotate(0)"><rect width="2" height="20" fill="#9FC131"/><rect x="4" width="2" height="20" fill="#9FC131"/><rect x="8" width="2" height="20" fill="#9FC131"/><rect x="12" width="2" height="20" fill="#9FC131"/><rect x="16" width="2" height="20" fill="#9FC131"/></g><rect x="64.625" y="387.75" width="64.625" height="64.625" fill="#042940"/><g transform="translate(64.63,387.75) scale(1.6155000000000002) rotate(0)"><path d="M10 0H20L0 20V10L10 0Z" fill="#005C53"/><path d="M20 10V20H10L20 10Z" fill="#005C53"/></g><g transform="translate(96.94,387.75) scale(1.6155000000000002) rotate(0)"><path d="M10 0H20L0 20V10L10 0Z" fill="#005C53"/><path d="M20 10V20H10L20 10Z" fill="#005C53"/></g><g transform="translate(64.63,420.06) scale(1.6155000000000002) rotate(0)"><rect width="20" height="2" fill="#9FC131"/><rect y="4" width="20" height="2" fill="#9FC131"/><rect y="8" width="20" height="2" fill="#9FC131"/><rect y="12" width="20" height="2" fill="#9FC131"/><rect y="16" width="20" height="2" fill="#9FC131"/></g><g transform="translate(96.94,420.06) scale(1.6155000000000002) rotate(0)"><path d="M5 0H10L5 5L0 10V5L5 0Z" fill="#DBF227"/><path d="M20 15V20H15L20 15Z" fill="#DBF227"/><path d="M20 5V10L15 15L10 20H5L20 5Z" fill="#DBF227"/><path d="M15 0H20L5 15.0002L0 20.0002V15.0002L15 0Z" fill="#DBF227"/></g><rect x="129.25" y="387.75" width="64.625" height="64.625" fill="#042940"/><g transform="translate(129.25,387.75) scale(1.6155000000000002) rotate(0)"><rect width="20" height="2" fill="#D6D58E"/><rect y="4" width="20" height="2" fill="#D6D58E"/><rect y="8" width="20" height="2" fill="#D6D58E"/><rect y="12" width="20" height="2" fill="#D6D58E"/><rect y="16" width="20" height="2" fill="#D6D58E"/></g><g transform="translate(161.56,387.75) scale(1.6155000000000002) rotate(0)"><rect width="2" height="20" fill="#9FC131"/><rect x="4" width="2" height="20" fill="#9FC131"/><rect x="8" width="2" height="20" fill="#9FC131"/><rect x="12" width="2" height="20" fill="#9FC131"/><rect x="16" width="2" height="20" fill="#9FC131"/></g><g transform="translate(129.25,420.06) scale(1.6155000000000002) rotate(0)"><rect width="2" height="20" fill="#005C53"/><rect x="4" width="2" height="20" fill="#005C53"/><rect x="8" width="2" height="20" fill="#005C53"/><rect x="12" width="2" height="20" fill="#005C53"/><rect x="16" width="2" height="20" fill="#005C53"/></g><g transform="translate(161.56,420.06) scale(1.6155000000000002) rotate(0)"><rect width="20" height="2" fill="#9FC131"/><rect y="4" width="20" height="2" fill="#9FC131"/><rect y="8" width="20" height="2" fill="#9FC131"/><rect y="12" width="20" height="2" fill="#9FC131"/><rect y="16" width="20" height="2" fill="#9FC131"/></g><rect x="323.125" y="387.75" width="64.625" height="64.625" fill="#042940"/><g transform="translate(323.13,387.75) scale(1.6155000000000002) rotate(0)"><path d="M5 0H10L5 5L0 10V5L5 0Z" fill="#DBF227"/><path d="M20 15V20H15L20 15Z" fill="#DBF227"/><path d="M20 5V10L15 15L10 20H5L20 5Z" fill="#DBF227"/><path d="M15 0H20L5 15.0002L0 20.0002V15.0002L15 0Z" fill="#DBF227"/></g><g transform="translate(355.44,387.75) scale(1.6155000000000002) rotate(0)"><path d="M10 0H20L0 20V10L10 0Z" fill="#9FC131"/><path d="M20 10V20H10L20 10Z" fill="#9FC131"/></g><g transform="translate(355.44,420.06) scale(1.6155000000000002) rotate(0)"><rect width="20" height="2" fill="#D6D58E"/><rect y="4" width="20" height="2" fill="#D6D58E"/><rect y="8" width="20" height="2" fill="#D6D58E"/><rect y="12" width="20" height="2" fill="#D6D58E"/><rect y="16" width="20" height="2" fill="#D6D58E"/></g><rect x="387.75" y="387.75" width="64.625" height="64.625" fill="#042940"/><g transform="translate(420.06,387.75) scale(1.6155000000000002) rotate(0)"><rect width="2" height="20" fill="#9FC131"/><rect x="4" width="2" height="20" fill="#9FC131"/><rect x="8" width="2" height="20" fill="#9FC131"/><rect x="12" width="2" height="20" fill="#9FC131"/><rect x="16" width="2" height="20" fill="#9FC131"/></g><g transform="translate(387.75,420.06) scale(1.6155000000000002) rotate(0)"><path d="M5 0H10L5 5L0 10V5L5 0Z" fill="#9FC131"/><path d="M20 15V20H15L20 15Z" fill="#9FC131"/><path d="M20 5V10L15 15L10 20H5L20 5Z" fill="#9FC131"/><path d="M15 0H20L5 15.0002L0 20.0002V15.0002L15 0Z" fill="#9FC131"/></g><g transform="translate(420.06,420.06) scale(1.6155000000000002) rotate(0)"><rect width="2" height="20" fill="#DBF227"/><rect x="4" width="2" height="20" fill="#DBF227"/><rect x="8" width="2" height="20" fill="#DBF227"/><rect x="12" width="2" height="20" fill="#DBF227"/><rect x="16" width="2" height="20" fill="#DBF227"/></g><rect x="452.375" y="387.75" width="64.625" height="64.625" fill="#042940"/><g transform="translate(452.38,387.75) scale(1.6155000000000002) rotate(0)"><path d="M5 0H10L5 5L0 10V5L5 0Z" fill="#DBF227"/><path d="M20 15V20H15L20 15Z" fill="#DBF227"/><path d="M20 5V10L15 15L10 20H5L20 5Z" fill="#DBF227"/><path d="M15 0H20L5 15.0002L0 20.0002V15.0002L15 0Z" fill="#DBF227"/></g><g transform="translate(484.69,387.75) scale(1.6155000000000002) rotate(0)"><path d="M10 0H20L0 20V10L10 0Z" fill="#D6D58E"/><path d="M20 10V20H10L20 10Z" fill="#D6D58E"/></g><g transform="translate(452.38,420.06) scale(1.6155000000000002) rotate(0)"><rect width="2" height="20" fill="#DBF227"/><rect x="4" width="2" height="20" fill="#DBF227"/><rect x="8" width="2" height="20" fill="#DBF227"/><rect x="12" width="2" height="20" fill="#DBF227"/><rect x="16" width="2" height="20" fill="#DBF227"/></g><g transform="translate(484.69,420.06) scale(1.6155000000000002) rotate(0)"><path d="M10 0H20L0 20V10L10 0Z" fill="#D6D58E"/><path d="M20 10V20H10L20 10Z" fill="#D6D58E"/></g><rect x="517" y="387.75" width="64.625" height="64.625" fill="#042940"/><g transform="translate(517,387.75) scale(1.6155000000000002) rotate(0)"><path d="M5 0H10L5 5L0 10V5L5 0Z" fill="#D6D58E"/><path d="M20 15V20H15L20 15Z" fill="#D6D58E"/><path d="M20 5V10L15 15L10 20H5L20 5Z" fill="#D6D58E"/><path d="M15 0H20L5 15.0002L0 20.0002V15.0002L15 0Z" fill="#D6D58E"/></g><g transform="translate(549.31,387.75) scale(1.6155000000000002) rotate(0)"><rect width="20" height="2" fill="#9FC131"/><rect y="4" width="20" height="2" fill="#9FC131"/><rect y="8" width="20" height="2" fill="#9FC131"/><rect y="12" width="20" height="2" fill="#9FC131"/><rect y="16" width="20" height="2" fill="#9FC131"/></g><g transform="translate(517,420.06) scale(1.6155000000000002) rotate(0)"><rect width="20" height="2" fill="#DBF227"/><rect y="4" width="20" height="2" fill="#DBF227"/><rect y="8" width="20" height="2" fill="#DBF227"/><rect y="12" width="20" height="2" fill="#DBF227"/><rect y="16" width="20" height="2" fill="#DBF227"/></g><g transform="translate(549.31,420.06) scale(1.6155000000000002) rotate(0)"><rect width="2" height="20" fill="#D6D58E"/><rect x="4" width="2" height="20" fill="#D6D58E"/><rect x="8" width="2" height="20" fill="#D6D58E"/><rect x="12" width="2" height="20" fill="#D6D58E"/><rect x="16" width="2" height="20" fill="#D6D58E"/></g><rect x="581.625" y="387.75" width="64.625" height="64.625" fill="#042940"/><g transform="translate(581.63,387.75) scale(1.6155000000000002) rotate(0)"><path d="M5 0H10L5 5L0 10V5L5 0Z" fill="#DBF227"/><path d="M20 15V20H15L20 15Z" fill="#DBF227"/><path d="M20 5V10L15 15L10 20H5L20 5Z" fill="#DBF227"/><path d="M15 0H20L5 15.0002L0 20.0002V15.0002L15 0Z" fill="#DBF227"/></g><g transform="translate(613.94,387.75) scale(1.6155000000000002) rotate(0)"><rect width="20" height="2" fill="#9FC131"/><rect y="4" width="20" height="2" fill="#9FC131"/><rect y="8" width="20" height="2" fill="#9FC131"/><rect y="12" width="20" height="2" fill="#9FC131"/><rect y="16" width="20" height="2" fill="#9FC131"/></g><g transform="translate(613.94,420.06) scale(1.6155000000000002) rotate(0)"><path d="M10 0H20L0 20V10L10 0Z" fill="#005C53"/><path d="M20 10V20H10L20 10Z" fill="#005C53"/></g><rect x="646.25" y="387.75" width="64.625" height="64.625" fill="#042940"/><g transform="translate(678.56,387.75) scale(1.6155000000000002) rotate(0)"><path d="M10 0H20L0 20V10L10 0Z" fill="#DBF227"/><path d="M20 10V20H10L20 10Z" fill="#DBF227"/></g><g transform="translate(646.25,420.06) scale(1.6155000000000002) rotate(0)"><rect width="20" height="2" fill="#DBF227"/><rect y="4" width="20" height="2" fill="#DBF227"/><rect y="8" width="20" height="2" fill="#DBF227"/><rect y="12" width="20" height="2" fill="#DBF227"/><rect y="16" width="20" height="2" fill="#DBF227"/></g><g transform="translate(678.56,420.06) scale(1.6155000000000002) rotate(0)"><path d="M10 0H20L0 20V10L10 0Z" fill="#DBF227"/><path d="M20 10V20H10L20 10Z" fill="#DBF227"/></g><rect x="775.5" y="387.75" width="64.625" height="64.625" fill="#042940"/><g transform="translate(775.5,387.75) scale(1.6155000000000002) rotate(0)"><path d="M10 0H20L0 20V10L10 0Z" fill="#9FC131"/><path d="M20 10V20H10L20 10Z" fill="#9FC131"/></g><g transform="translate(807.81,387.75) scale(1.6155000000000002) rotate(0)"><path d="M5 0H10L5 5L0 10V5L5 0Z" fill="#005C53"/><path d="M20 15V20H15L20 15Z" fill="#005C53"/><path d="M20 5V10L15 15L10 20H5L20 5Z" fill="#005C53"/><path d="M15 0H20L5 15.0002L0 20.0002V15.0002L15 0Z" fill="#005C53"/></g><g transform="translate(775.5,420.06) scale(1.6155000000000002) rotate(0)"><path d="M10 0H20L0 20V10L10 0Z" fill="#D6D58E"/><path d="M20 10V20H10L20 10Z" fill="#D6D58E"/></g><g transform="translate(807.81,420.06) scale(1.6155000000000002) rotate(0)"><rect width="2" height="20" fill="#D6D58E"/><rect x="4" width="2" height="20" fill="#D6D58E"/><rect x="8" width="2" height="20" fill="#D6D58E"/><rect x="12" width="2" height="20" fill="#D6D58E"/><rect x="16" width="2" height="20" fill="#D6D58E"/></g><rect x="0" y="452.375" width="64.625" height="64.625" fill="#042940"/><g transform="translate(0,452.38) scale(1.6155000000000002) rotate(0)"><path d="M10 0H20L0 20V10L10 0Z" fill="#D6D58E"/><path d="M20 10V20H10L20 10Z" fill="#D6D58E"/></g><g transform="translate(32.31,452.38) scale(1.6155000000000002) rotate(0)"><rect width="2" height="20" fill="#005C53"/><rect x="4" width="2" height="20" fill="#005C53"/><rect x="8" width="2" height="20" fill="#005C53"/><rect x="12" width="2" height="20" fill="#005C53"/><rect x="16" width="2" height="20" fill="#005C53"/></g><g transform="translate(0,484.69) scale(1.6155000000000002) rotate(0)"><path d="M10 0H20L0 20V10L10 0Z" fill="#D6D58E"/><path d="M20 10V20H10L20 10Z" fill="#D6D58E"/></g><g transform="translate(32.31,484.69) scale(1.6155000000000002) rotate(0)"><rect width="2" height="20" fill="#005C53"/><rect x="4" width="2" height="20" fill="#005C53"/><rect x="8" width="2" height="20" fill="#005C53"/><rect x="12" width="2" height="20" fill="#005C53"/><rect x="16" width="2" height="20" fill="#005C53"/></g><rect x="64.625" y="452.375" width="64.625" height="64.625" fill="#042940"/><g transform="translate(64.63,452.38) scale(1.6155000000000002) rotate(0)"><path d="M5 0H10L5 5L0 10V5L5 0Z" fill="#D6D58E"/><path d="M20 15V20H15L20 15Z" fill="#D6D58E"/><path d="M20 5V10L15 15L10 20H5L20 5Z" fill="#D6D58E"/><path d="M15 0H20L5 15.0002L0 20.0002V15.0002L15 0Z" fill="#D6D58E"/></g><g transform="translate(96.94,452.38) scale(1.6155000000000002) rotate(0)"><path d="M5 0H10L5 5L0 10V5L5 0Z" fill="#DBF227"/><path d="M20 15V20H15L20 15Z" fill="#DBF227"/><path d="M20 5V10L15 15L10 20H5L20 5Z" fill="#DBF227"/><path d="M15 0H20L5 15.0002L0 20.0002V15.0002L15 0Z" fill="#DBF227"/></g><g transform="translate(64.63,484.69) scale(1.6155000000000002) rotate(0)"><path d="M5 0H10L5 5L0 10V5L5 0Z" fill="#9FC131"/><path d="M20 15V20H15L20 15Z" fill="#9FC131"/><path d="M20 5V10L15 15L10 20H5L20 5Z" fill="#9FC131"/><path d="M15 0H20L5 15.0002L0 20.0002V15.0002L15 0Z" fill="#9FC131"/></g><g transform="translate(96.94,484.69) scale(1.6155000000000002) rotate(0)"><path d="M10 0H20L0 20V10L10 0Z" fill="#D6D58E"/><path d="M20 10V20H10L20 10Z" fill="#D6D58E"/></g><rect x="129.25" y="452.375" width="64.625" height="64.625" fill="#042940"/><g transform="translate(129.25,452.38) scale(1.6155000000000002) rotate(0)"><rect width="2" height="20" fill="#005C53"/><rect x="4" width="2" height="20" fill="#005C53"/><rect x="8" width="2" height="20" fill="#005C53"/><rect x="12" width="2" height="20" fill="#005C53"/><rect x="16" width="2" height="20" fill="#005C53"/></g><g transform="translate(161.56,452.38) scale(1.6155000000000002) rotate(0)"><path d="M10 0H20L0 20V10L10 0Z" fill="#005C53"/><path d="M20 10V20H10L20 10Z" fill="#005C53"/></g><g transform="translate(129.25,484.69) scale(1.6155000000000002) rotate(0)"><rect width="20" height="2" fill="#005C53"/><rect y="4" width="20" height="2" fill="#005C53"/><rect y="8" width="20" height="2" fill="#005C53"/><rect y="12" width="20" height="2" fill="#005C53"/><rect y="16" width="20" height="2" fill="#005C53"/></g><g transform="translate(161.56,484.69) scale(1.6155000000000002) rotate(0)"><rect width="20" height="2" fill="#DBF227"/><rect y="4" width="20" height="2" fill="#DBF227"/><rect y="8" width="20" height="2" fill="#DBF227"/><rect y="12" width="20" height="2" fill="#DBF227"/><rect y="16" width="20" height="2" fill="#DBF227"/></g><rect x="193.875" y="452.375" width="64.625" height="64.625" fill="#042940"/><g transform="translate(193.88,452.38) scale(1.6155000000000002) rotate(0)"><path d="M5 0H10L5 5L0 10V5L5 0Z" fill="#DBF227"/><path d="M20 15V20H15L20 15Z" fill="#DBF227"/><path d="M20 5V10L15 15L10 20H5L20 5Z" fill="#DBF227"/><path d="M15 0H20L5 15.0002L0 20.0002V15.0002L15 0Z" fill="#DBF227"/></g><g transform="translate(226.19,452.38) scale(1.6155000000000002) rotate(0)"><path d="M10 0H20L0 20V10L10 0Z" fill="#005C53"/><path d="M20 10V20H10L20 10Z" fill="#005C53"/></g><g transform="translate(193.88,484.69) scale(1.6155000000000002) rotate(0)"><rect width="2" height="20" fill="#DBF227"/><rect x="4" width="2" height="20" fill="#DBF227"/><rect x="8" width="2" height="20" fill="#DBF227"/><rect x="12" width="2" height="20" fill="#DBF227"/><rect x="16" width="2" height="20" fill="#DBF227"/></g><g transform="translate(226.19,484.69) scale(1.6155000000000002) rotate(0)"><path d="M10 0H20L0 20V10L10 0Z" fill="#DBF227"/><path d="M20 10V20H10L20 10Z" fill="#DBF227"/></g><rect x="258.5" y="452.375" width="64.625" height="64.625" fill="#042940"/><g transform="translate(258.5,452.38) scale(1.6155000000000002) rotate(0)"><rect width="2" height="20" fill="#9FC131"/><rect x="4" width="2" height="20" fill="#9FC131"/><rect x="8" width="2" height="20" fill="#9FC131"/><rect x="12" width="2" height="20" fill="#9FC131"/><rect x="16" width="2" height="20" fill="#9FC131"/></g><g transform="translate(290.81,452.38) scale(1.6155000000000002) rotate(0)"><path d="M10 0H20L0 20V10L10 0Z" fill="#9FC131"/><path d="M20 10V20H10L20 10Z" fill="#9FC131"/></g><g transform="translate(258.5,484.69) scale(1.6155000000000002) rotate(0)"><path d="M5 0H10L5 5L0 10V5L5 0Z" fill="#DBF227"/><path d="M20 15V20H15L20 15Z" fill="#DBF227"/><path d="M20 5V10L15 15L10 20H5L20 5Z" fill="#DBF227"/><path d="M15 0H20L5 15.0002L0 20.0002V15.0002L15 0Z" fill="#DBF227"/></g><g transform="translate(290.81,484.69) scale(1.6155000000000002) rotate(0)"><path d="M10 0H20L0 20V10L10 0Z" fill="#DBF227"/><path d="M20 10V20H10L20 10Z" fill="#DBF227"/></g><rect x="323.125" y="452.375" width="64.625" height="64.625" fill="#042940"/><g transform="translate(323.13,452.38) scale(1.6155000000000002) rotate(0)"><path d="M5 0H10L5 5L0 10V5L5 0Z" fill="#005C53"/><path d="M20 15V20H15L20 15Z" fill="#005C53"/><path d="M20 5V10L15 15L10 20H5L20 5Z" fill="#005C53"/><path d="M15 0H20L5 15.0002L0 20.0002V15.0002L15 0Z" fill="#005C53"/></g><g transform="translate(355.44,452.38) scale(1.6155000000000002) rotate(0)"><path d="M10 0H20L0 20V10L10 0Z" fill="#9FC131"/><path d="M20 10V20H10L20 10Z" fill="#9FC131"/></g><g transform="translate(323.13,484.69) scale(1.6155000000000002) rotate(0)"><path d="M5 0H10L5 5L0 10V5L5 0Z" fill="#9FC131"/><path d="M20 15V20H15L20 15Z" fill="#9FC131"/><path d="M20 5V10L15 15L10 20H5L20 5Z" fill="#9FC131"/><path d="M15 0H20L5 15.0002L0 20.0002V15.0002L15 0Z" fill="#9FC131"/></g><g transform="translate(355.44,484.69) scale(1.6155000000000002) rotate(0)"><rect width="20" height="2" fill="#D6D58E"/><rect y="4" width="20" height="2" fill="#D6D58E"/><rect y="8" width="20" height="2" fill="#D6D58E"/><rect y="12" width="20" height="2" fill="#D6D58E"/><rect y="16" width="20" height="2" fill="#D6D58E"/></g><rect x="387.75" y="452.375" width="64.625" height="64.625" fill="#042940"/><g transform="translate(387.75,452.38) scale(1.6155000000000002) rotate(0)"><path d="M10 0H20L0 20V10L10 0Z" fill="#DBF227"/><path d="M20 10V20H10L20 10Z" fill="#DBF227"/></g><g transform="translate(420.06,452.38) scale(1.6155000000000002) rotate(0)"><rect width="20" height="2" fill="#005C53"/><rect y="4" width="20" height="2" fill="#005C53"/><rect y="8" width="20" height="2" fill="#005C53"/><rect y="12" width="20" height="2" fill="#005C53"/><rect y="16" width="20" height="2" fill="#005C53"/></g><g transform="translate(387.75,484.69) scale(1.6155000000000002) rotate(0)"><path d="M5 0H10L5 5L0 10V5L5 0Z" fill="#005C53"/><path d="M20 15V20H15L20 15Z" fill="#005C53"/><path d="M20 5V10L15 15L10 20H5L20 5Z" fill="#005C53"/><path d="M15 0H20L5 15.0002L0 20.0002V15.0002L15 0Z" fill="#005C53"/></g><g transform="translate(420.06,484.69) scale(1.6155000000000002) rotate(0)"><rect width="20" height="2" fill="#9FC131"/><rect y="4" width="20" height="2" fill="#9FC131"/><rect y="8" width="20" height="2" fill="#9FC131"/><rect y="12" width="20" height="2" fill="#9FC131"/><rect y="16" width="20" height="2" fill="#9FC131"/></g><rect x="452.375" y="452.375" width="64.625" height="64.625" fill="#042940"/><g transform="translate(452.38,452.38) scale(1.6155000000000002) rotate(0)"><rect width="20" height="2" fill="#005C53"/><rect y="4" width="20" height="2" fill="#005C53"/><rect y="8" width="20" height="2" fill="#005C53"/><rect y="12" width="20" height="2" fill="#005C53"/><rect y="16" width="20" height="2" fill="#005C53"/></g><g transform="translate(484.69,452.38) scale(1.6155000000000002) rotate(0)"><rect width="20" height="2" fill="#005C53"/><rect y="4" width="20" height="2" fill="#005C53"/><rect y="8" width="20" height="2" fill="#005C53"/><rect y="12" width="20" height="2" fill="#005C53"/><rect y="16" width="20" height="2" fill="#005C53"/></g><g transform="translate(452.38,484.69) scale(1.6155000000000002) rotate(0)"><path d="M10 0H20L0 20V10L10 0Z" fill="#DBF227"/><path d="M20 10V20H10L20 10Z" fill="#DBF227"/></g><g transform="translate(484.69,484.69) scale(1.6155000000000002) rotate(0)"><path d="M10 0H20L0 20V10L10 0Z" fill="#DBF227"/><path d="M20 10V20H10L20 10Z" fill="#DBF227"/></g><rect x="517" y="452.375" width="64.625" height="64.625" fill="#042940"/><g transform="translate(517,452.38) scale(1.6155000000000002) rotate(0)"><rect width="2" height="20" fill="#DBF227"/><rect x="4" width="2" height="20" fill="#DBF227"/><rect x="8" width="2" height="20" fill="#DBF227"/><rect x="12" width="2" height="20" fill="#DBF227"/><rect x="16" width="2" height="20" fill="#DBF227"/></g><g transform="translate(549.31,452.38) scale(1.6155000000000002) rotate(0)"><rect width="2" height="20" fill="#D6D58E"/><rect x="4" width="2" height="20" fill="#D6D58E"/><rect x="8" width="2" height="20" fill="#D6D58E"/><rect x="12" width="2" height="20" fill="#D6D58E"/><rect x="16" width="2" height="20" fill="#D6D58E"/></g><g transform="translate(517,484.69) scale(1.6155000000000002) rotate(0)"><path d="M5 0H10L5 5L0 10V5L5 0Z" fill="#D6D58E"/><path d="M20 15V20H15L20 15Z" fill="#D6D58E"/><path d="M20 5V10L15 15L10 20H5L20 5Z" fill="#D6D58E"/><path d="M15 0H20L5 15.0002L0 20.0002V15.0002L15 0Z" fill="#D6D58E"/></g><g transform="translate(549.31,484.69) scale(1.6155000000000002) rotate(0)"><path d="M5 0H10L5 5L0 10V5L5 0Z" fill="#005C53"/><path d="M20 15V20H15L20 15Z" fill="#005C53"/><path d="M20 5V10L15 15L10 20H5L20 5Z" fill="#005C53"/><path d="M15 0H20L5 15.0002L0 20.0002V15.0002L15 0Z" fill="#005C53"/></g><rect x="581.625" y="452.375" width="64.625" height="64.625" fill="#042940"/><g transform="translate(581.63,452.38) scale(1.6155000000000002) rotate(0)"><rect width="20" height="2" fill="#DBF227"/><rect y="4" width="20" height="2" fill="#DBF227"/><rect y="8" width="20" height="2" fill="#DBF227"/><rect y="12" width="20" height="2" fill="#DBF227"/><rect y="16" width="20" height="2" fill="#DBF227"/></g><g transform="translate(613.94,452.38) scale(1.6155000000000002) rotate(0)"><rect width="20" height="2" fill="#DBF227"/><rect y="4" width="20" height="2" fill="#DBF227"/><rect y="8" width="20" height="2" fill="#DBF227"/><rect y="12" width="20" height="2" fill="#DBF227"/><rect y="16" width="20" height="2" fill="#DBF227"/></g><g transform="translate(581.63,484.69) scale(1.6155000000000002) rotate(0)"><path d="M5 0H10L5 5L0 10V5L5 0Z" fill="#D6D58E"/><path d="M20 15V20H15L20 15Z" fill="#D6D58E"/><path d="M20 5V10L15 15L10 20H5L20 5Z" fill="#D6D58E"/><path d="M15 0H20L5 15.0002L0 20.0002V15.0002L15 0Z" fill="#D6D58E"/></g><g transform="translate(613.94,484.69) scale(1.6155000000000002) rotate(0)"><rect width="20" height="2" fill="#005C53"/><rect y="4" width="20" height="2" fill="#005C53"/><rect y="8" width="20" height="2" fill="#005C53"/><rect y="12" width="20" height="2" fill="#005C53"/><rect y="16" width="20" height="2" fill="#005C53"/></g><rect x="646.25" y="452.375" width="64.625" height="64.625" fill="#042940"/><g transform="translate(646.25,452.38) scale(1.6155000000000002) rotate(0)"><path d="M5 0H10L5 5L0 10V5L5 0Z" fill="#DBF227"/><path d="M20 15V20H15L20 15Z" fill="#DBF227"/><path d="M20 5V10L15 15L10 20H5L20 5Z" fill="#DBF227"/><path d="M15 0H20L5 15.0002L0 20.0002V15.0002L15 0Z" fill="#DBF227"/></g><g transform="translate(678.56,452.38) scale(1.6155000000000002) rotate(0)"><rect width="20" height="2" fill="#D6D58E"/><rect y="4" width="20" height="2" fill="#D6D58E"/><rect y="8" width="20" height="2" fill="#D6D58E"/><rect y="12" width="20" height="2" fill="#D6D58E"/><rect y="16" width="20" height="2" fill="#D6D58E"/></g><g transform="translate(646.25,484.69) scale(1.6155000000000002) rotate(0)"><rect width="20" height="2" fill="#D6D58E"/><rect y="4" width="20" height="2" fill="#D6D58E"/><rect y="8" width="20" height="2" fill="#D6D58E"/><rect y="12" width="20" height="2" fill="#D6D58E"/><rect y="16" width="20" height="2" fill="#D6D58E"/></g><g transform="translate(678.56,484.69) scale(1.6155000000000002) rotate(0)"><rect width="20" height="2" fill="#DBF227"/><rect y="4" width="20" height="2" fill="#DBF227"/><rect y="8" width="20" height="2" fill="#DBF227"/><rect y="12" width="20" height="2" fill="#DBF227"/><rect y="16" width="20" height="2" fill="#DBF227"/></g><rect x="710.875" y="452.375" width="64.625" height="64.625" fill="#042940"/><g transform="translate(710.88,452.38) scale(1.6155000000000002) rotate(0)"><path d="M5 0H10L5 5L0 10V5L5 0Z" fill="#DBF227"/><path d="M20 15V20H15L20 15Z" fill="#DBF227"/><path d="M20 5V10L15 15L10 20H5L20 5Z" fill="#DBF227"/><path d="M15 0H20L5 15.0002L0 20.0002V15.0002L15 0Z" fill="#DBF227"/></g><g transform="translate(743.19,452.38) scale(1.6155000000000002) rotate(0)"><path d="M10 0H20L0 20V10L10 0Z" fill="#9FC131"/><path d="M20 10V20H10L20 10Z" fill="#9FC131"/></g><g transform="translate(710.88,484.69) scale(1.6155000000000002) rotate(0)"><path d="M5 0H10L5 5L0 10V5L5 0Z" fill="#DBF227"/><path d="M20 15V20H15L20 15Z" fill="#DBF227"/><path d="M20 5V10L15 15L10 20H5L20 5Z" fill="#DBF227"/><path d="M15 0H20L5 15.0002L0 20.0002V15.0002L15 0Z" fill="#DBF227"/></g><g transform="translate(743.19,484.69) scale(1.6155000000000002) rotate(0)"><path d="M5 0H10L5 5L0 10V5L5 0Z" fill="#DBF227"/><path d="M20 15V20H15L20 15Z" fill="#DBF227"/><path d="M20 5V10L15 15L10 20H5L20 5Z" fill="#DBF227"/><path d="M15 0H20L5 15.0002L0 20.0002V15.0002L15 0Z" fill="#DBF227"/></g><rect x="775.5" y="452.375" width="64.625" height="64.625" fill="#042940"/><g transform="translate(775.5,452.38) scale(1.6155000000000002) rotate(0)"><rect width="20" height="2" fill="#D6D58E"/><rect y="4" width="20" height="2" fill="#D6D58E"/><rect y="8" width="20" height="2" fill="#D6D58E"/><rect y="12" width="20" height="2" fill="#D6D58E"/><rect y="16" width="20" height="2" fill="#D6D58E"/></g><g transform="translate(807.81,452.38) scale(1.6155000000000002) rotate(0)"><rect width="2" height="20" fill="#DBF227"/><rect x="4" width="2" height="20" fill="#DBF227"/><rect x="8" width="2" height="20" fill="#DBF227"/><rect x="12" width="2" height="20" fill="#DBF227"/><rect x="16" width="2" height="20" fill="#DBF227"/></g><g transform="translate(775.5,484.69) scale(1.6155000000000002) rotate(0)"><path d="M5 0H10L5 5L0 10V5L5 0Z" fill="#DBF227"/><path d="M20 15V20H15L20 15Z" fill="#DBF227"/><path d="M20 5V10L15 15L10 20H5L20 5Z" fill="#DBF227"/><path d="M15 0H20L5 15.0002L0 20.0002V15.0002L15 0Z" fill="#DBF227"/></g><g transform="translate(807.81,484.69) scale(1.6155000000000002) rotate(0)"><path d="M5 0H10L5 5L0 10V5L5 0Z" fill="#DBF227"/><path d="M20 15V20H15L20 15Z" fill="#DBF227"/><path d="M20 5V10L15 15L10 20H5L20 5Z" fill="#DBF227"/><path d="M15 0H20L5 15.0002L0 20.0002V15.0002L15 0Z" fill="#DBF227"/></g></g></svg>